<?xml version="1.0" encoding="utf-8"?>
<!DOCTYPE svg PUBLIC "-//W3C//DTD SVG 1.1//EN" "http://www.w3.org/Graphics/SVG/1.1/DTD/svg11.dtd">
<svg version="1.1" xmlns="http://www.w3.org/2000/svg" xmlns:xlink="http://www.w3.org/1999/xlink" x="0px" y="0px" viewBox="0 0 1000 1000" enable-background="new 0 0 1000 1000" xml:space="preserve">
<g><g fill="currentColor" transform="translate(0.000000,512.000000) scale(0.100000,-0.100000)"><path d="M4931,5010.8c-23-9.6-59.5-42.2-82.5-71l-40.3-51.8V3428.6V1969.2l-521.6,521.6c-287.7,285.8-542.7,529.3-565.8,540.8c-157.3,78.6-339.4-69-276.2-224.4c13.4-28.8,368.2-398.9,788.2-818.9l767.1-767.1l767.1,767.1c420,420,774.8,790.1,788.2,818.9c63.3,155.3-118.9,303-276.2,224.4c-23-11.5-278.1-255.1-563.8-540.8l-523.6-521.6v1461.4v1463.3l-51.8,57.5C5082.5,5012.7,4996.2,5037.7,4931,5010.8z"/><path d="M2171.2,1668.1c-95.9-51.8-134.2-172.6-84.4-270.4c11.5-23,255.1-278.1,540.8-563.8l521.7-523.6H1687.9H224.7l-61.4-55.6c-51.8-46-63.3-69-63.3-136.2s11.5-90.1,63.3-136.2l61.4-55.6h1463.3h1461.4L2627.7-595c-285.8-287.7-529.3-542.7-540.8-565.8c-78.6-157.3,69-339.5,224.4-276.2c28.8,13.4,398.9,368.2,818.9,788.2l767.1,767.1l-757.5,759.5c-416.2,416.2-780.6,771-809.3,786.3C2269,1696.8,2223,1696.8,2171.2,1668.1z"/><path d="M7656.2,1654.6c-30.7-19.2-393.2-374-805.5-786.3l-747.9-749.9l767.1-767.1c420-420,790.1-774.8,818.9-788.2c155.3-63.3,303,118.9,224.4,276.2c-11.5,23-255.1,278.1-540.8,565.8L6850.7-73.3h1461.4h1463.3l61.4,55.6c51.8,46,63.3,69.1,63.3,136.2s-11.5,90.1-63.3,136.2l-61.4,55.6H8312.1H6850.7l521.7,523.6c285.7,285.8,529.3,540.8,540.8,563.8c49.9,99.7,11.5,222.5-88.2,272.3C7765.5,1700.7,7721.4,1696.8,7656.2,1654.6z"/><path d="M4831.2,471.3c-86.3-44.1-191.8-172.6-207.1-251.2c-32.6-178.4,26.9-327.9,168.8-431.5c53.7-36.4,88.2-44.1,207.1-44.1c161.1,0,224.4,30.7,322.2,157.3c46,61.4,51.8,86.3,51.8,216.7c0,130.4-5.8,155.3-51.8,216.7c-90.1,117-163,155.3-303,163C4931,502,4875.3,494.4,4831.2,471.3z"/><path d="M4219.4-1764.8c-514-515.9-774.8-790.1-782.5-826.6c-17.3-67.1,19.2-155.4,78.6-195.6c51.8-34.5,145.8-38.4,205.2-7.7c23,11.5,278.1,255.1,565.8,540.8l521.6,521.7v-1461.4v-1463.3l55.6-61.4c46-51.8,69-63.3,136.2-63.3c67.1,0,90.1,11.5,136.2,63.3l55.6,61.4v1463.3v1461.4l523.6-521.7c285.8-285.8,540.8-529.3,563.8-540.8c59.5-30.7,153.4-26.8,205.2,7.7c59.4,40.3,95.9,128.5,78.6,195.6c-7.7,36.4-268.5,310.7-782.5,826.6c-423.8,423.8-774.8,771-780.5,771S4643.3-1341,4219.4-1764.8z"/></g></g>
</svg>