<?xml version="1.0" encoding="utf-8"?>
<!DOCTYPE svg PUBLIC "-//W3C//DTD SVG 1.1//EN" "http://www.w3.org/Graphics/SVG/1.1/DTD/svg11.dtd">
<svg height="20px" width="20px"  version="1.1" xmlns="http://www.w3.org/2000/svg" xmlns:xlink="http://www.w3.org/1999/xlink" x="0px" y="0px" viewBox="0 0 1000 1000" enable-background="new 0 0 1000 1000" xml:space="preserve">
<g><path style="fill:currentColor;stroke:currentColor"  d="M956.1,557.6c0-58.4-12.1-115-35.9-168.4c-22.9-51.4-55.7-97.5-97.5-137.2C747.3,180.4,650,136.9,545,127.2l56.6-61.1c14.5-15.7,16.2-37.7,3.8-49.3s-34.3-8.2-48.8,7.5l-99.5,107.3c-14.5,15.7-16.2,37.7-3.8,49.3c1.1,1,2.2,1.9,3.4,2.7c0.5,0.6,1,1.2,1.6,1.8l99.5,107.3c14.5,15.7,36.4,19,48.8,7.5c12.4-11.5,10.8-33.6-3.8-49.3l-57.3-61.8c196,21.4,349,178.8,349,368.5c0,204.6-177,371-394.6,371c-217.2,0-394.2-166.1-394.6-370.3h-0.3c-1.6-15.4-14.7-27.5-30.6-27.5c-15.9,0-29,12.1-30.6,27.6H44c0,0.3,0,0.6,0,0.9c-0.1,0.7-0.1,1.5-0.1,2.2c0,1,0,1.9,0.1,2.9C45,620.7,57.2,675.4,80.3,727c23.1,51.5,56.1,97.6,98.1,137.2C264.5,945.3,378.7,990,500,990c61.3,0,120.9-11.4,176.9-33.8c54.3-21.7,103-52.7,144.9-92.3c42-39.7,75-85.9,98.1-137.5C943.9,673,956.1,616.2,956.1,557.6z"/></g>
</svg>