<svg class="svg-icon" style="width: 1em; height: 1em;vertical-align: middle;fill: currentColor;overflow: hidden;" viewBox="0 0 1024 1024" version="1.1" xmlns="http://www.w3.org/2000/svg"><path id="icon-svg" style="fill:currentColor;" d="M34.133333 375.466667c-10.24 0-17.066667 6.826667-17.066666 17.066666v221.866667c0 10.24 6.826667 17.066667 17.066666 17.066667s17.066667-6.826667 17.066667-17.066667v-221.866667c0-10.24-6.826667-17.066667-17.066667-17.066666zM170.666667 221.866667c-10.24 0-17.066667 6.826667-17.066667 17.066666v546.133334c0 10.24 6.826667 17.066667 17.066667 17.066666s17.066667-6.826667 17.066666-17.066666v-546.133334c0-10.24-6.826667-17.066667-17.066666-17.066666zM307.2 51.2c-10.24 0-17.066667 6.826667-17.066667 17.066667v887.466666c0 10.24 6.826667 17.066667 17.066667 17.066667s17.066667-6.826667 17.066667-17.066667v-887.466666c0-10.24-6.826667-17.066667-17.066667-17.066667zM443.733333 85.333333c-10.24 0-17.066667 6.826667-17.066666 17.066667v819.2c0 10.24 6.826667 17.066667 17.066666 17.066667s17.066667-6.826667 17.066667-17.066667v-819.2c0-10.24-6.826667-17.066667-17.066667-17.066667zM580.266667 256c-10.24 0-17.066667 6.826667-17.066667 17.066667v477.866666c0 10.24 6.826667 17.066667 17.066667 17.066667s17.066667-6.826667 17.066666-17.066667v-477.866666c0-10.24-6.826667-17.066667-17.066666-17.066667zM716.8 85.333333c-10.24 0-17.066667 6.826667-17.066667 17.066667v819.2c0 10.24 6.826667 17.066667 17.066667 17.066667s17.066667-6.826667 17.066667-17.066667v-819.2c0-10.24-6.826667-17.066667-17.066667-17.066667zM853.333333 256c-10.24 0-17.066667 6.826667-17.066666 17.066667v477.866666c0 10.24 6.826667 17.066667 17.066666 17.066667s17.066667-6.826667 17.066667-17.066667v-477.866666c0-10.24-6.826667-17.066667-17.066667-17.066667zM989.866667 392.533333c-10.24 0-17.066667 6.826667-17.066667 17.066667v204.8c0 10.24 6.826667 17.066667 17.066667 17.066667s17.066667-6.826667 17.066666-17.066667v-204.8c0-10.24-6.826667-17.066667-17.066666-17.066667z"  /></svg>